<svg width="104" height="60" viewBox="0 0 104 60" fill="none" xmlns="http://www.w3.org/2000/svg">
    <path d="M66.3478 51.2621H73.6626V55.2097H53.7953V51.2621H61.1101V48.6287H66.3528V51.2621H66.3478ZM60.2763 47.8134C59.043 47.8134 57.9595 47.5713 57.0208 47.0921C56.0821 46.6079 55.3581 45.931 54.8389 45.0516C54.3246 44.1721 54.0649 43.1593 54.0649 41.9982C54.0649 40.8372 54.3246 39.849 54.8389 38.9745C55.3531 38.1 56.0821 37.4182 57.0208 36.934C57.9595 36.4498 59.043 36.2126 60.2763 36.2126H67.1766C68.4099 36.2126 69.4934 36.4547 70.4321 36.934C71.3708 37.4182 72.0948 38.0951 72.6141 38.9745C73.1283 39.854 73.388 40.8619 73.388 41.9982C73.388 43.1346 73.1283 44.1721 72.6141 45.0516C72.0998 45.931 71.3708 46.6079 70.4321 47.0921C69.4934 47.5763 68.4099 47.8134 67.1766 47.8134H60.2763ZM61.215 40.185C60.6258 40.185 60.1515 40.353 59.792 40.684C59.4325 41.015 59.2527 41.4646 59.2527 42.0279C59.2527 42.5911 59.4325 43.0358 59.792 43.3717C60.1515 43.7028 60.6258 43.8707 61.215 43.8707H66.238C66.8271 43.8707 67.3015 43.7028 67.661 43.3717C68.0205 43.0407 68.2002 42.5911 68.2002 42.0279C68.2002 41.4646 68.0205 41.02 67.661 40.684C67.3015 40.353 66.8271 40.185 66.238 40.185H61.215Z" fill="#F80069"/>
    <path d="M88.6964 40.2144H82.1305V51.2668H88.6964V55.2144H76.9677V36.2717H88.6964V40.2194V40.2144ZM96.2858 56H91.098V47.8429H87.7876V43.8953H91.098V36H96.2858V56Z" fill="#F80069"/>
    <path d="M13.4258 49.8142H8.26797V56H27.0268V52.0524H13.4258V49.8142Z" fill="#F80069"/>
    <path d="M21.8694 36V40.4713H19.992V36.2619H14.8342V38.5494H12.9019V36.2619H7.71413V48.4951H19.992V44.419H21.8694V49.8142H27.0272V36H21.8694ZM13.3612 47.1561V44.1275H11.2142L14.0653 39.8043V42.5563H16.3571L13.3612 47.1561Z" fill="#F80069"/>
    <path d="M30.6169 36.2664H38.6756V40.9749C38.6756 49.4136 36.1741 54.1567 31.1711 55.209L30.0676 51.2614C31.3359 50.7179 32.2746 49.6409 32.8837 48.0253C33.4929 46.4096 33.7924 44.0628 33.7924 40.9749V40.214H30.6219V36.2664H30.6169Z" fill="#F80069"/>
    <path d="M50.4791 36H45.7257V43.9298H44.5573V36H39.804V43.8953V47.8429V55.9358V56H44.5573V47.8182H45.7257V56H50.4791V36Z" fill="#F80069"/>
    <path d="M53.9166 2V6.46857H50.088V2H40V26H64V2H53.9121H53.9166ZM51.0657 23.9974V17.793H46.3415L52.6191 8.93897V14.5793H57.6631L51.0657 24.0018V23.9974Z" fill="#F80069"/>
</svg>
