<svg width="90" height="20" viewBox="0 0 90 20" fill="none" xmlns="http://www.w3.org/2000/svg">
    <path d="M59.3478 15.2621H66.6626V19.2097H46.7953V15.2621H54.1101V12.6287H59.3528V15.2621H59.3478ZM53.2763 11.8134C52.043 11.8134 50.9595 11.5713 50.0208 11.0921C49.0821 10.6079 48.3581 9.93103 47.8389 9.05158C47.3246 8.17214 47.0649 7.15929 47.0649 5.99822C47.0649 4.83716 47.3246 3.84901 47.8389 2.97451C48.3531 2.1 49.0821 1.41818 50.0208 0.933994C50.9595 0.449804 52.043 0.212646 53.2763 0.212646H60.1766C61.4099 0.212646 62.4934 0.454745 63.4321 0.933994C64.3708 1.41818 65.0948 2.09506 65.6141 2.97451C66.1283 3.85395 66.388 4.86186 66.388 5.99822C66.388 7.13459 66.1283 8.17214 65.6141 9.05158C65.0998 9.93103 64.3708 10.6079 63.4321 11.0921C62.4934 11.5763 61.4099 11.8134 60.1766 11.8134H53.2763ZM54.215 4.18498C53.6258 4.18498 53.1515 4.35296 52.792 4.68399C52.4325 5.01502 52.2527 5.46463 52.2527 6.02787C52.2527 6.59111 52.4325 7.03577 52.792 7.37174C53.1515 7.70277 53.6258 7.87075 54.215 7.87075H59.238C59.8271 7.87075 60.3015 7.70277 60.661 7.37174C61.0205 7.04071 61.2002 6.59111 61.2002 6.02787C61.2002 5.46463 61.0205 5.01996 60.661 4.68399C60.3015 4.35296 59.8271 4.18498 59.238 4.18498H54.215Z" fill="#F80069"/>
    <path d="M81.6964 4.21443H75.1305V15.2668H81.6964V19.2144H69.9677V0.271737H81.6964V4.21936V4.21443ZM89.2858 20H84.098V11.8429H80.7876V7.89526H84.098V0H89.2858V20Z" fill="#F80069"/>
    <path d="M6.42578 13.8142H1.26797V20H20.0268V16.0524H6.42578V13.8142Z" fill="#F80069"/>
    <path d="M14.8694 0V4.47134H12.992V0.261857H7.83419V2.54941H5.90189V0.261857H0.714127V12.4951H12.992V8.41897H14.8694V13.8142H20.0272V0H14.8694ZM6.36125 11.1561V8.12747H4.21424L7.06527 3.80435V6.55632H9.35707L6.36125 11.1561Z" fill="#F80069"/>
    <path d="M23.6169 0.266357H31.6756V4.97486C31.6756 13.4136 29.1741 18.1567 24.1711 19.209L23.0676 15.2614C24.3359 14.7179 25.2746 13.6409 25.8837 12.0253C26.4929 10.4096 26.7924 8.0628 26.7924 4.97486V4.21399H23.6219V0.266357H23.6169Z" fill="#F80069"/>
    <path d="M43.4791 0H38.7257V7.92984H37.5573V0H32.804V7.89526V11.8429V19.9358V20H37.5573V11.8182H38.7257V20H43.4791V0Z" fill="#F80069"/>
</svg>
