<svg width="106" height="38" viewBox="0 0 106 38" fill="none" xmlns="http://www.w3.org/2000/svg">
<path fill-rule="evenodd" clip-rule="evenodd" d="M3.068 26.7507V19.5507H9.356V17.1267H3.068V12.4267H10.848V9.9507H0V26.7507H3.068ZM15.996 26.7507V9.4707H12.928V26.7507H16H15.996ZM27.288 26.5107C28.0274 26.1744 28.6831 25.6785 29.208 25.0587C29.7187 24.4598 30.0988 23.7609 30.324 23.0067H27.208C27.0016 23.453 26.6729 23.8317 26.26 24.0987C25.7893 24.3917 25.2421 24.5379 24.688 24.5187C23.9046 24.537 23.1442 24.2534 22.564 23.7267C22.2655 23.4451 22.0259 23.1071 21.859 22.7322C21.6922 22.3573 21.6014 21.953 21.592 21.5427H30.64C30.656 21.3347 30.668 21.1347 30.676 20.9427C30.684 20.7507 30.688 20.5667 30.688 20.3907C30.701 19.3534 30.4402 18.3311 29.932 17.4267C29.4371 16.5479 28.7108 15.8216 27.832 15.3267C26.8846 14.8014 25.815 14.5364 24.732 14.5587C23.5959 14.5294 22.4728 14.8057 21.48 15.3587C20.5643 15.89 19.816 16.6674 19.32 17.6027C18.7871 18.6155 18.5188 19.7465 18.54 20.8907C18.5167 22.0137 18.7899 23.123 19.332 24.1067C19.8426 25.0176 20.5995 25.7662 21.516 26.2667C22.4968 26.7916 23.5958 27.0561 24.708 27.0347C25.5973 27.0513 26.4794 26.8724 27.292 26.5107H27.288ZM26.7 17.7507C26.9644 17.987 27.1775 18.2751 27.3261 18.5971C27.4748 18.9191 27.5557 19.2682 27.564 19.6227H21.64C21.7404 18.8598 22.1352 18.1664 22.74 17.6907C23.3166 17.2665 24.0163 17.0431 24.732 17.0547C25.4534 17.0309 26.1573 17.2794 26.704 17.7507H26.7ZM35.084 26.7507L38.108 22.5267L41.108 26.7507H44.42L40.08 20.8007L44.424 14.8487H41.112L38.112 19.0727L35.088 14.8467H31.8L36.12 20.7987L31.8 26.7507H35.088H35.084ZM50.676 32.0307L58.236 14.8467H54.976L51.496 23.2227L48.16 14.8467H44.824L49.456 25.9587H50.176L47.416 32.0307H50.68H50.676Z" fill="white"/>
<path fill-rule="evenodd" clip-rule="evenodd" d="M80.2309 4.08594C81.794 4.08726 83.2926 4.70877 84.3979 5.81401C85.5031 6.91925 86.1246 8.41789 86.1259 9.98094V28.2159C86.1259 29.7794 85.5049 31.2788 84.3993 32.3843C83.2938 33.4899 81.7944 34.1109 80.2309 34.1109C78.6675 34.1109 77.1681 33.4899 76.0625 32.3843C74.957 31.2788 74.3359 29.7794 74.3359 28.2159V9.98094C74.3373 8.41789 74.9588 6.91925 76.064 5.81401C77.1692 4.70877 78.6679 4.08726 80.2309 4.08594Z" fill="#FB9678" stroke="#FB9678"/>
<path d="M93.5078 3H80.5078C77.1941 3 74.5078 5.68629 74.5078 9C74.5078 12.3137 77.1941 15 80.5078 15H93.5078C96.8215 15 99.5078 12.3137 99.5078 9C99.5078 5.68629 96.8215 3 93.5078 3Z" fill="#03C9D7" stroke="#03C9D7"/>
<path d="M93.2108 30.2966C96.7057 30.2966 99.5388 27.4635 99.5388 23.9686C99.5388 20.4738 96.7057 17.6406 93.2108 17.6406C89.716 17.6406 86.8828 20.4738 86.8828 23.9686C86.8828 27.4635 89.716 30.2966 93.2108 30.2966Z" fill="#FEC90F" stroke="#FEC90F"/>
</svg>
